<svg viewBox="0 0 600 620" fill="none" xmlns="http://www.w3.org/2000/svg">
  <defs>
    
    <clipPath id="circleBadgeClip">
      <circle cx="300" cy="318" r="280" />
    </clipPath>

    
    <radialGradient id="stageWarmGlow" cx="50%" cy="40%" r="55%">
      <stop offset="0%" stopColor="#FFFDF7" />
      <stop offset="35%" stopColor="#FFF6DD" />
      <stop offset="65%" stopColor="#F8E5BA" />
      <stop offset="90%" stopColor="#E2C181" />
      <stop offset="100%" stopColor="#BD8E3A" />
    </radialGradient>

    
    <linearGradient id="purpleBannerGrad" x1="0" y1="0" x2="0" y2="1">
      <stop offset="0%" stopColor="#4A0950" />
      <stop offset="35%" stopColor="#3A053E" />
      <stop offset="100%" stopColor="#220225" />
    </linearGradient>

    <linearGradient id="purpleCurtainGrad" x1="0" y1="0" x2="1" y2="0">
      <stop offset="0%" stopColor="#2A042E" />
      <stop offset="50%" stopColor="#460B4C" />
      <stop offset="100%" stopColor="#1F0223" />
    </linearGradient>

    
    <linearGradient id="goldRimGrad" x1="0" y1="0" x2="1" y2="1">
      <stop offset="0%" stopColor="#FFF4B8" />
      <stop offset="20%" stopColor="#F5D061" />
      <stop offset="50%" stopColor="#C99424" />
      <stop offset="80%" stopColor="#FDE68A" />
      <stop offset="100%" stopColor="#A17116" />
    </linearGradient>

    <linearGradient id="goldCarvingGrad" x1="0" y1="0" x2="0" y2="1">
      <stop offset="0%" stopColor="#FFF2A8" />
      <stop offset="25%" stopColor="#E5B94E" />
      <stop offset="60%" stopColor="#B68322" />
      <stop offset="100%" stopColor="#784E0C" />
    </linearGradient>

    <linearGradient id="goldPillarGrad" x1="0" y1="0" x2="1" y2="0">
      <stop offset="0%" stopColor="#926210" />
      <stop offset="25%" stopColor="#F7DA7C" />
      <stop offset="50%" stopColor="#E5B94E" />
      <stop offset="75%" stopColor="#FAF0B2" />
      <stop offset="100%" stopColor="#8A5A0B" />
    </linearGradient>

    <linearGradient id="silkIvoryGrad" x1="0" y1="0" x2="1" y2="1">
      <stop offset="0%" stopColor="#FFFFFF" />
      <stop offset="70%" stopColor="#F8FAFC" />
      <stop offset="100%" stopColor="#E2E8F0" />
    </linearGradient>

    <linearGradient id="sareeCrimsonGrad" x1="0" y1="0" x2="1" y2="1">
      <stop offset="0%" stopColor="#DC143C" />
      <stop offset="35%" stopColor="#B91C1C" />
      <stop offset="75%" stopColor="#991B1B" />
      <stop offset="100%" stopColor="#7F1D1D" />
    </linearGradient>

    <linearGradient id="flameGrad" x1="0" y1="1" x2="0" y2="0">
      <stop offset="0%" stopColor="#EA580C" />
      <stop offset="40%" stopColor="#F59E0B" />
      <stop offset="80%" stopColor="#FDE047" />
      <stop offset="100%" stopColor="#FFFFFF" />
    </linearGradient>

    <filter id="flameGlow" x="-50%" y="-50%" width="200%" height="200%">
      <feGaussianBlur in="SourceGraphic" stdDeviation="3.5" result="blur" />
      <feMerge>
        <feMergeNode in="blur" />
        <feMergeNode in="SourceGraphic" />
      </feMerge>
    </filter>
  </defs>

  
  
  
  <g clipPath="url(#circleBadgeClip)">
    
    <rect x="0" y="38" width="600" height="380" fill="url(#stageWarmGlow)" />

    
    <g opacity="0.35" stroke="#C99424" strokeWidth="1">
      <line x1="220" y1="100" x2="220" y2="300" />
      <line x1="240" y1="100" x2="240" y2="300" />
      <line x1="260" y1="100" x2="260" y2="300" />
      <line x1="280" y1="100" x2="280" y2="300" />
      <line x1="300" y1="100" x2="300" y2="300" />
      <line x1="320" y1="100" x2="320" y2="300" />
      <line x1="340" y1="100" x2="340" y2="300" />
      <line x1="360" y1="100" x2="360" y2="300" />
      <line x1="380" y1="100" x2="380" y2="300" />
    </g>

    
    
    <path d="M 0 38 L 155 38 Q 145 180 155 310 L 0 310 Z" fill="url(#purpleCurtainGrad)" />
    <path d="M 0 38 Q 45 160 30 310 M 35 38 Q 80 160 65 310 M 70 38 Q 115 160 100 310" stroke="#DFB76C" strokeWidth="1" opacity="0.4" fill="none" />

    
    <path d="M 445 38 L 600 38 L 600 310 L 445 310 Q 455 180 445 38 Z" fill="url(#purpleCurtainGrad)" />
    <path d="M 530 38 Q 505 160 520 310 M 565 38 Q 540 160 555 310" stroke="#DFB76C" strokeWidth="1" opacity="0.4" fill="none" />

    
    <g id="banquetTables" opacity="0.95">
      
      <ellipse cx="98" cy="285" rx="46" ry="17" fill="#F8FAFC" stroke="#E2E8F0" strokeWidth="1" />
      <ellipse cx="98" cy="283" rx="42" ry="14" fill="#FFFFFF" />
      
      
      <rect x="95" y="260" width="6" height="15" rx="1.5" fill="#E2E8F0" stroke="#CBD5E1" strokeWidth="0.8" />
      <circle cx="98" cy="256" r="10" fill="#15803D" />
      <circle cx="94" cy="253" r="5" fill="#E11D48" />
      <circle cx="102" cy="253" r="5" fill="#FFFFFF" />
      <circle cx="98" cy="258" r="4.5" fill="#FDE047" />

      
      <g transform="translate(58, 266)">
        <rect x="0" y="0" width="16" height="24" rx="4" fill="#F1F5F9" stroke="#E2E8F0" strokeWidth="0.8" />
        <rect x="0" y="10" width="16" height="4" fill="#DFB76C" />
        <path d="M 8 12 L 4 19 M 8 12 L 12 19" stroke="#DFB76C" strokeWidth="1.5" />
      </g>
      <g transform="translate(122, 266)">
        <rect x="0" y="0" width="16" height="24" rx="4" fill="#F1F5F9" stroke="#E2E8F0" strokeWidth="0.8" />
        <rect x="0" y="10" width="16" height="4" fill="#DFB76C" />
        <path d="M 8 12 L 4 19 M 8 12 L 12 19" stroke="#DFB76C" strokeWidth="1.5" />
      </g>
      <g transform="translate(90, 252)">
        <rect x="0" y="0" width="16" height="22" rx="4" fill="#FFFFFF" stroke="#E2E8F0" strokeWidth="0.8" />
        <rect x="0" y="9" width="16" height="4" fill="#DFB76C" />
      </g>
    </g>

    
    <g id="stageRig" opacity="0.95">
      
      <line x1="455" y1="172" x2="590" y2="172" stroke="#94A3B8" strokeWidth="3" strokeLinecap="round" />
      <line x1="455" y1="194" x2="590" y2="194" stroke="#94A3B8" strokeWidth="3" strokeLinecap="round" />
      <path d="M 455 172 L 477 194 L 499 172 L 521 194 L 543 172 L 565 194 L 587 172" stroke="#64748B" strokeWidth="1.5" fill="none" />
      
      
      <circle cx="475" cy="202" r="5.5" fill="#A855F7" />
      <circle cx="498" cy="202" r="5.5" fill="#F59E0B" />
      <circle cx="521" cy="202" r="5.5" fill="#38BDF8" />
      <circle cx="544" cy="202" r="5.5" fill="#EC4899" />
      <circle cx="567" cy="202" r="5.5" fill="#FDE047" />

      
      <path d="M 475 202 L 370 345 L 430 345 Z" fill="#C084FC" opacity="0.2" />
      <path d="M 498 202 L 390 345 L 450 345 Z" fill="#FDE68A" opacity="0.18" />

      
      <g transform="translate(526, 206)">
        <rect x="0" y="0" width="36" height="44" rx="3" fill="#0F172A" stroke="#334155" strokeWidth="1.2" />
        <circle cx="18" cy="14" r="8" fill="#1E293B" stroke="#475569" strokeWidth="1" />
        <circle cx="18" cy="32" r="7" fill="#1E293B" stroke="#475569" strokeWidth="1" />
        
        <rect x="0" y="48" width="36" height="52" rx="3" fill="#0F172A" stroke="#334155" strokeWidth="1.2" />
        <circle cx="18" cy="66" r="10" fill="#1E293B" stroke="#475569" strokeWidth="1" />
        <circle cx="18" cy="87" r="8" fill="#1E293B" stroke="#475569" strokeWidth="1" />
      </g>
    </g>

    
    <path d="M 0 300 L 600 300 L 600 395 L 0 395 Z" fill="#881337" />
    <path d="M 0 325 L 600 325 L 600 395 L 0 395 Z" fill="#700F2C" />

    
    
    
    <g id="mandapInterior">
      
      
      <path d="M 242 208 Q 260 174 278 208 L 280 295 L 240 295 Z" fill="url(#goldCarvingGrad)" stroke="#78350F" strokeWidth="1" />
      <path d="M 246 216 Q 260 190 274 216 L 276 290 L 244 290 Z" fill="#FFF4D1" stroke="#DFB76C" strokeWidth="0.8" />
      
      <path d="M 322 208 Q 340 174 358 208 L 360 295 L 320 295 Z" fill="url(#goldCarvingGrad)" stroke="#78350F" strokeWidth="1" />
      <path d="M 326 216 Q 340 190 354 216 L 356 290 L 324 290 Z" fill="#FFF4D1" stroke="#DFB76C" strokeWidth="0.8" />
    </g>

    
    
    
    <g id="mandapPillars">
      
      <g transform="translate(158, 108)">
        
        <path d="M -10 0 L 38 0 L 34 20 L -6 20 Z" fill="url(#goldCarvingGrad)" stroke="#FFE07A" strokeWidth="1" />
        
        <rect x="0" y="20" width="28" height="190" rx="3" fill="url(#goldPillarGrad)" stroke="#78350F" strokeWidth="0.8" />
        <line x1="7" y1="22" x2="7" y2="208" stroke="#FFE59E" strokeWidth="1.4" opacity="0.8" />
        <line x1="14" y1="22" x2="14" y2="208" stroke="#78350F" strokeWidth="1.2" opacity="0.5" />
        <line x1="21" y1="22" x2="21" y2="208" stroke="#FFE59E" strokeWidth="1.4" opacity="0.8" />
        
        <rect x="-4" y="65" width="36" height="9" rx="2" fill="url(#goldCarvingGrad)" stroke="#FFF0A3" strokeWidth="0.8" />
        <rect x="-4" y="130" width="36" height="9" rx="2" fill="url(#goldCarvingGrad)" stroke="#FFF0A3" strokeWidth="0.8" />
        
        <path d="M -8 210 L 36 210 L 40 228 L -12 228 Z" fill="url(#goldCarvingGrad)" />
      </g>

      
      <g transform="translate(414, 108)">
        
        <path d="M -10 0 L 38 0 L 34 20 L -6 20 Z" fill="url(#goldCarvingGrad)" stroke="#FFE07A" strokeWidth="1" />
        
        <rect x="0" y="20" width="28" height="190" rx="3" fill="url(#goldPillarGrad)" stroke="#78350F" strokeWidth="0.8" />
        <line x1="7" y1="22" x2="7" y2="208" stroke="#FFE59E" strokeWidth="1.4" opacity="0.8" />
        <line x1="14" y1="22" x2="14" y2="208" stroke="#78350F" strokeWidth="1.2" opacity="0.5" />
        <line x1="21" y1="22" x2="21" y2="208" stroke="#FFE59E" strokeWidth="1.4" opacity="0.8" />
        
        <rect x="-4" y="65" width="36" height="9" rx="2" fill="url(#goldCarvingGrad)" stroke="#FFF0A3" strokeWidth="0.8" />
        <rect x="-4" y="130" width="36" height="9" rx="2" fill="url(#goldCarvingGrad)" stroke="#FFF0A3" strokeWidth="0.8" />
        
        <path d="M -8 210 L 36 210 L 40 228 L -12 228 Z" fill="url(#goldCarvingGrad)" />
      </g>
    </g>

    
    <g id="mandapFlowers">
      
      <path d="M 158 112 Q 300 162 442 112" stroke="#FFFFFF" strokeWidth="11" strokeLinecap="round" fill="none" />
      <path d="M 158 114 Q 300 164 442 114" stroke="#BE123C" strokeWidth="7" strokeLinecap="round" fill="none" />
      
      
      <line x1="285" y1="135" x2="285" y2="198" stroke="#FFFFFF" strokeWidth="5" strokeDasharray="5 3" />
      <line x1="285" y1="135" x2="285" y2="198" stroke="#BE123C" strokeWidth="3" strokeDasharray="3 5" />
      
      <line x1="300" y1="140" x2="300" y2="212" stroke="#FFFFFF" strokeWidth="6" strokeDasharray="6 3" />
      <line x1="300" y1="140" x2="300" y2="212" stroke="#E11D48" strokeWidth="4" strokeDasharray="4 5" />
      
      <line x1="315" y1="135" x2="315" y2="198" stroke="#FFFFFF" strokeWidth="5" strokeDasharray="5 3" />
      <line x1="315" y1="135" x2="315" y2="198" stroke="#BE123C" strokeWidth="3" strokeDasharray="3 5" />
    </g>

    
    <g id="brassFloralUrns">
      
      <g transform="translate(142, 240)">
        <circle cx="0" cy="0" r="18" fill="#15803D" />
        <circle cx="-8" cy="-5" r="9" fill="#E11D48" />
        <circle cx="7" cy="-7" r="9" fill="#FFFFFF" />
        <circle cx="0" cy="5" r="9" fill="#E11D48" />
        <circle cx="8" cy="4" r="8" fill="#FDE047" />
        
        <ellipse cx="0" cy="20" rx="15" ry="7" fill="#B45309" stroke="#DFB76C" strokeWidth="1.2" />
        <path d="M -13 20 L -9 44 L 9 44 L 13 20 Z" fill="#92400E" stroke="#DFB76C" strokeWidth="1.2" />
      </g>

      
      <g transform="translate(458, 240)">
        <circle cx="0" cy="0" r="18" fill="#15803D" />
        <circle cx="-8" cy="-5" r="9" fill="#E11D48" />
        <circle cx="7" cy="-7" r="9" fill="#FFFFFF" />
        <circle cx="0" cy="5" r="9" fill="#E11D48" />
        <circle cx="-8" cy="4" r="8" fill="#FDE047" />
        
        <ellipse cx="0" cy="20" rx="15" ry="7" fill="#B45309" stroke="#DFB76C" strokeWidth="1.2" />
        <path d="M -13 20 L -9 44 L 9 44 L 13 20 Z" fill="#92400E" stroke="#DFB76C" strokeWidth="1.2" />
      </g>
    </g>

    
    <g id="kuthuVilakkuLamps">
      
      <g transform="translate(186, 252)">
        <ellipse cx="0" cy="-28" rx="4" ry="8" fill="url(#flameGrad)" filter="url(#flameGlow)" />
        <circle cx="0" cy="-26" r="3" fill="#FEF08A" />
        <ellipse cx="0" cy="-22" rx="10" ry="4" fill="#CA8A04" stroke="#FFE59E" strokeWidth="1" />
        <rect x="-2.5" y="-20" width="5" height="54" fill="url(#goldCarvingGrad)" />
        <ellipse cx="0" cy="8" rx="8" ry="3" fill="#EAB308" />
        <path d="M -14 34 L 14 34 L 18 45 L -18 45 Z" fill="url(#goldCarvingGrad)" stroke="#78350F" strokeWidth="1" />
      </g>

      
      <g transform="translate(414, 252)">
        <ellipse cx="0" cy="-28" rx="4" ry="8" fill="url(#flameGrad)" filter="url(#flameGlow)" />
        <circle cx="0" cy="-26" r="3" fill="#FEF08A" />
        <ellipse cx="0" cy="-22" rx="10" ry="4" fill="#CA8A04" stroke="#FFE59E" strokeWidth="1" />
        <rect x="-2.5" y="-20" width="5" height="54" fill="url(#goldCarvingGrad)" />
        <ellipse cx="0" cy="8" rx="8" ry="3" fill="#EAB308" />
        <path d="M -14 34 L 14 34 L 18 45 L -18 45 Z" fill="url(#goldCarvingGrad)" stroke="#78350F" strokeWidth="1" />
      </g>
    </g>

    
    
    
    <g id="brideAndGroom">
      
      <g id="groom" transform="translate(265, 230)">
        
        <ellipse cx="0" cy="-15" rx="15" ry="13" fill="#18181B" />
        
        <circle cx="0" cy="-7" r="11.5" fill="#F5C396" />
        
        <path d="M -5 -9 Q -3 -10 -1 -9" stroke="#27272A" strokeWidth="1.2" strokeLinecap="round" />
        <path d="M 2 -9 Q 4 -10 6 -9" stroke="#27272A" strokeWidth="1.2" strokeLinecap="round" />
        <path d="M -3 -3 Q 1 2 5 -3" stroke="#713F12" strokeWidth="1.3" strokeLinecap="round" fill="none" />
        <circle cx="0.5" cy="-11" r="1.3" fill="#DC2626" />
        
        
        <path d="M -18 6 L 19 6 L 24 58 L -22 58 Z" fill="url(#silkIvoryGrad)" stroke="#DFB76C" strokeWidth="1.2" />
        <line x1="1" y1="6" x2="1" y2="58" stroke="#DFB76C" strokeWidth="1.8" />
        
        
        <path d="M -13 8 Q 1 48 15 8" stroke="#FFFFFF" strokeWidth="7.5" fill="none" strokeLinecap="round" />
        <path d="M -13 10 Q 1 50 15 10" stroke="#BE123C" strokeWidth="5" fill="none" strokeLinecap="round" />
        <circle cx="1" cy="48" r="5" fill="#E11D48" />

        
        <path d="M -40 55 C -20 50 20 50 40 55 C 48 80 -48 80 -40 55 Z" fill="#F8FAFC" stroke="#DFB76C" strokeWidth="1.4" />
        <path d="M -32 72 Q 1 78 34 72" stroke="#B88A2D" strokeWidth="5" fill="none" />
        <path d="M -32 72 Q 1 78 34 72" stroke="#FFE07A" strokeWidth="2" fill="none" />
      </g>

      
      <g id="bride" transform="translate(335, 235)">
        
        <ellipse cx="0" cy="-15" rx="15" ry="13" fill="#18181B" />
        <path d="M -15 -13 Q 0 -24 15 -13" stroke="#FFFFFF" strokeWidth="4.5" fill="none" />
        
        
        <circle cx="0" cy="-7" r="11" fill="#FCD3B1" />
        
        <line x1="0" y1="-18" x2="0" y2="-11" stroke="#DFB76C" strokeWidth="1.5" />
        <circle cx="0" cy="-10.5" r="2.2" fill="#DFB76C" />
        <circle cx="0" cy="-10.5" r="1" fill="#DC2626" />
        
        
        <path d="M -5 -9 Q -3 -10 -1 -9" stroke="#18181B" strokeWidth="1.2" strokeLinecap="round" />
        <path d="M 2 -9 Q 4 -10 6 -9" stroke="#18181B" strokeWidth="1.2" strokeLinecap="round" />
        <circle cx="-12" cy="-5" r="2.8" fill="#FFE59E" />
        <circle cx="12" cy="-5" r="2.8" fill="#FFE59E" />
        <path d="M -3 -2 Q 1 2 5 -2" stroke="#BE123C" strokeWidth="1.6" strokeLinecap="round" fill="none" />

        
        <path d="M -18 6 L 19 6 L 24 58 L -22 58 Z" fill="url(#sareeCrimsonGrad)" />
        <path d="M -11 6 Q 1 19 13 6" stroke="#DFB76C" strokeWidth="3.2" fill="none" />
        <path d="M -13 10 Q 1 28 15 10" stroke="#FFE59E" strokeWidth="2.8" fill="none" strokeDasharray="2 2" />

        
        <path d="M -12 8 Q 1 48 14 8" stroke="#FFFFFF" strokeWidth="7.5" fill="none" strokeLinecap="round" />
        <path d="M -12 10 Q 1 50 14 10" stroke="#BE123C" strokeWidth="5" fill="none" strokeLinecap="round" />
        <circle cx="1" cy="48" r="5" fill="#E11D48" />

        
        <path d="M -38 53 C -16 48 26 48 44 53 C 50 80 -44 80 -38 53 Z" fill="url(#sareeCrimsonGrad)" stroke="#B91C1C" strokeWidth="1.3" />
        <path d="M -32 70 Q 2 77 36 70" stroke="#DFB76C" strokeWidth="6" fill="none" />
        <path d="M -32 70 Q 2 77 36 70" stroke="#FFF2A3" strokeWidth="2.2" fill="none" />
        
        <path d="M -18 50 Q 2 56 22 50" stroke="#DFB76C" strokeWidth="2.2" fill="none" />
      </g>
    </g>

    
    
    
    <g id="royalPurpleBanner">
      
      <path
        d="M -10 338 Q 300 412 610 338 L 610 630 L -10 630 Z"
        fill="url(#purpleBannerGrad)"
      />

      
      <path
        d="M -10 338 Q 300 412 610 338"
        stroke="url(#goldRimGrad)"
        strokeWidth="5"
        fill="none"
      />
      <path
        d="M -10 345 Q 300 419 610 345"
        stroke="#DFB76C"
        strokeWidth="1.5"
        fill="none"
        opacity="0.8"
      />

      
      <line x1="160" y1="422" x2="160" y2="520" stroke="#DFB76C" strokeWidth="1" opacity="0.6" />
      <line x1="258" y1="432" x2="258" y2="530" stroke="#DFB76C" strokeWidth="1" opacity="0.6" />
      <line x1="358" y1="432" x2="358" y2="530" stroke="#DFB76C" strokeWidth="1" opacity="0.6" />
      <line x1="456" y1="422" x2="456" y2="520" stroke="#DFB76C" strokeWidth="1" opacity="0.6" />

      
      
      

      
      <g id="medallion1" transform="translate(108, 452)">
        
        <rect x="-48" y="-36" width="96" height="124" rx="16" fill="#1B031F" stroke="#DFB76C" strokeWidth="1.5" opacity="0.95" />
        
        <circle cx="0" cy="-6" r="24" fill="#2E0836" stroke="url(#goldRimGrad)" strokeWidth="2.5" />
        
        <path d="M 0 -22 L 0 -17 M -2 -19 L 2 -19" stroke="#FFE59E" strokeWidth="1.5" strokeLinecap="round" />
        <ellipse cx="0" cy="-15" rx="2" ry="3.5" fill="#FBBF24" />
        <path d="M -8 -11 L 8 -11 L 5 -7 L -5 -7 Z" fill="#DFB76C" />
        <line x1="0" y1="-7" x2="0" y2="4" stroke="#DFB76C" strokeWidth="2" />
        <path d="M -7 4 L 7 4 L 9 9 L -9 9 Z" fill="#DFB76C" />
        
        <text x="0" y="32" textAnchor="middle" fill="#FFFFFF" fontSize="8.5" fontWeight="bold" fontFamily="system-ui, sans-serif">
          Complete
        </text>
        <text x="0" y="43" textAnchor="middle" fill="#FFFFFF" fontSize="8.5" fontWeight="bold" fontFamily="system-ui, sans-serif">
          Traditional &amp;
        </text>
        <text x="0" y="54" textAnchor="middle" fill="#FFFFFF" fontSize="8" fontWeight="600" fontFamily="system-ui, sans-serif">
          Contemporary
        </text>
        <text x="0" y="65" textAnchor="middle" fill="#DFB76C" fontSize="8" fontWeight="bold" fontFamily="system-ui, sans-serif">
          South Indian
        </text>
        <text x="0" y="76" textAnchor="middle" fill="#FFFFFF" fontSize="7.5" fontWeight="600" fontFamily="system-ui, sans-serif">
          Wedding Planning
        </text>
      </g>

      
      <g id="medallion2" transform="translate(208, 470)">
        
        <circle cx="0" cy="-6" r="24" fill="#2E0836" stroke="url(#goldRimGrad)" strokeWidth="2.5" />
        
        <path d="M 0 -22 L 0 -18" stroke="#FFE59E" strokeWidth="1.5" />
        <path d="M -12 -16 Q 0 -22 12 -16 L 14 -12 Q 0 -16 -14 -12 Z" fill="#DFB76C" />
        <line x1="-10" y1="-12" x2="-10" y2="4" stroke="#FFE59E" strokeWidth="1.8" />
        <line x1="-3" y1="-12" x2="-3" y2="4" stroke="#FFE59E" strokeWidth="1.5" />
        <line x1="3" y1="-12" x2="3" y2="4" stroke="#FFE59E" strokeWidth="1.5" />
        <line x1="10" y1="-12" x2="10" y2="4" stroke="#FFE59E" strokeWidth="1.8" />
        <line x1="-12" y1="4" x2="12" y2="4" stroke="#DFB76C" strokeWidth="2" />
        
        <text x="0" y="32" textAnchor="middle" fill="#FFFFFF" fontSize="11" fontWeight="bold" fontFamily="system-ui, sans-serif">
          Custom
        </text>
        <text x="0" y="46" textAnchor="middle" fill="#FFFFFF" fontSize="11" fontWeight="bold" fontFamily="system-ui, sans-serif">
          Mandapam
        </text>
        <text x="0" y="60" textAnchor="middle" fill="#DFB76C" fontSize="10.5" fontWeight="bold" fontFamily="system-ui, sans-serif">
          Decor
        </text>
      </g>

      
      <g id="medallion3" transform="translate(308, 478)">
        
        <circle cx="0" cy="-6" r="24" fill="#2E0836" stroke="url(#goldRimGrad)" strokeWidth="2.5" />
        
        <path d="M -12 -16 L -6 -20 L -2 -14 L -8 -10 Z" fill="#DFB76C" />
        <path d="M -7 -12 L -14 3 L -4 3 Z" fill="#FDE047" opacity="0.65" />
        <rect x="2" y="-18" width="12" height="20" rx="2" fill="#DFB76C" />
        <circle cx="8" cy="-13" r="2.5" fill="#2E0836" />
        <circle cx="8" cy="-5" r="3.5" fill="#2E0836" />
        
        <text x="0" y="32" textAnchor="middle" fill="#FFFFFF" fontSize="11" fontWeight="bold" fontFamily="system-ui, sans-serif">
          Lighting &amp;
        </text>
        <text x="0" y="47" textAnchor="middle" fill="#DFB76C" fontSize="11" fontWeight="bold" fontFamily="system-ui, sans-serif">
          Sound Rig
        </text>
      </g>

      
      <g id="medallion4" transform="translate(408, 470)">
        
        <circle cx="0" cy="-6" r="24" fill="#2E0836" stroke="url(#goldRimGrad)" strokeWidth="2.5" />
        
        <circle cx="-5" cy="-14" r="3.5" fill="#DFB76C" />
        <path d="M -10 -8 L 0 -8 L 1 5 L -11 5 Z" fill="#DFB76C" />
        <circle cx="6" cy="-13" r="3" fill="#FFE59E" />
        <path d="M 2 -8 L 10 -8 L 13 5 L 0 5 Z" fill="#FFE59E" />
        
        <text x="0" y="32" textAnchor="middle" fill="#FFFFFF" fontSize="11" fontWeight="bold" fontFamily="system-ui, sans-serif">
          Bride &amp; Groom
        </text>
        <text x="0" y="47" textAnchor="middle" fill="#DFB76C" fontSize="11" fontWeight="bold" fontFamily="system-ui, sans-serif">
          Stage
        </text>
      </g>

      
      <g id="medallion5" transform="translate(502, 452)">
        
        <circle cx="0" cy="-6" r="24" fill="#2E0836" stroke="url(#goldRimGrad)" strokeWidth="2.5" />
        
        <circle cx="0" cy="-16" r="2.5" fill="#FFE59E" />
        <path d="M -12 -8 Q 0 -20 12 -8 Z" fill="#DFB76C" />
        <line x1="-15" y1="-8" x2="15" y2="-8" stroke="#FFE59E" strokeWidth="2" strokeLinecap="round" />
        <path d="M -14 0 Q -5 -2 0 -2 Q 7 -2 12 -5 Q 8 2 0 4 Q -7 4 -14 0 Z" fill="#DFB76C" />
        
        <text x="0" y="32" textAnchor="middle" fill="#FFFFFF" fontSize="11" fontWeight="bold" fontFamily="system-ui, sans-serif">
          Guest
        </text>
        <text x="0" y="47" textAnchor="middle" fill="#DFB76C" fontSize="11" fontWeight="bold" fontFamily="system-ui, sans-serif">
          Hospitality
        </text>
      </g>

      
      <g id="lotusDivider" transform="translate(300, 576)">
        
        <line x1="-120" y1="0" x2="-28" y2="0" stroke="url(#goldRimGrad)" strokeWidth="1.8" />
        <polygon points="-120,-3 -124,0 -120,3 -116,0" fill="#FFE59E" />
        
        <path d="M 0 -13 C 5 -7 8 -2 0 3 C -8 -2 -5 -7 0 -13 Z" fill="#FFE59E" />
        <path d="M -4 -9 C -13 -6 -18 2 -8 2 C -2 2 -1 -2 -4 -9 Z" fill="#DFB76C" />
        <path d="M 4 -9 C 13 -6 18 2 8 2 C 2 2 1 -2 4 -9 Z" fill="#DFB76C" />
        <circle cx="0" cy="4" r="2" fill="#FFE59E" />
        
        <line x1="28" y1="0" x2="120" y2="0" stroke="url(#goldRimGrad)" strokeWidth="1.8" />
        <polygon points="120,-3 124,0 120,3 116,0" fill="#FFE59E" />
      </g>
    </g>

    
    <circle cx="300" cy="318" r="278" stroke="url(#goldRimGrad)" strokeWidth="8" fill="none" />
    <circle cx="300" cy="318" r="272" stroke="#2E0836" strokeWidth="3" fill="none" opacity="0.6" />
    <circle cx="300" cy="318" r="270" stroke="#FFE59E" strokeWidth="1.5" fill="none" />
  </g>

  
  
  
  <g id="unclippedMandapApex">
    
    <path d="M 300 8 L 306 26 L 294 26 Z" fill="url(#goldCarvingGrad)" />
    <circle cx="300" cy="26" r="5" fill="#FFE59E" />
    <path d="M 291 31 L 309 31 L 305 40 L 295 40 Z" fill="url(#goldCarvingGrad)" stroke="#B68322" strokeWidth="0.8" />

    
    <path d="M 268 42 Q 300 24 332 42 L 340 54 Q 300 38 260 54 Z" fill="url(#goldCarvingGrad)" stroke="#DFB76C" strokeWidth="1" />
    
    
    <path d="M 232 55 Q 300 32 368 55 L 382 74 Q 300 50 218 74 Z" fill="url(#goldCarvingGrad)" stroke="#FFE07A" strokeWidth="1.2" />
    <circle cx="255" cy="64" r="2.5" fill="#78350F" opacity="0.65" />
    <circle cx="275" cy="64" r="2.5" fill="#78350F" opacity="0.65" />
    <circle cx="295" cy="64" r="2.5" fill="#78350F" opacity="0.65" />
    <circle cx="305" cy="64" r="2.5" fill="#78350F" opacity="0.65" />
    <circle cx="325" cy="64" r="2.5" fill="#78350F" opacity="0.65" />
    <circle cx="345" cy="64" r="2.5" fill="#78350F" opacity="0.65" />

    
    <path d="M 192 76 Q 300 48 408 76 L 424 104 Q 300 70 176 104 Z" fill="url(#goldCarvingGrad)" stroke="#DFB76C" strokeWidth="1.5" />
    
    <path d="M 176 104 Q 188 112 200 104 Q 212 112 224 104 Q 236 112 248 104 Q 260 112 272 104 Q 284 112 296 104 Q 308 112 320 104 Q 332 112 344 104 Q 356 112 368 104 Q 380 112 392 104 Q 404 112 416 104 Q 424 110 428 104" fill="none" stroke="#FFE59E" strokeWidth="2.2" strokeLinecap="round" />
  </g>
</svg>
